<?xml version="1.0" standalone="no"?>
<!DOCTYPE svg PUBLIC "-//W3C//DTD SVG 20010904//EN"
 "http://www.w3.org/TR/2001/REC-SVG-20010904/DTD/svg10.dtd">
<svg version="1.0" xmlns="http://www.w3.org/2000/svg"
 width="512.000000pt" height="512.000000pt" viewBox="0 0 512.000000 512.000000"
 preserveAspectRatio="xMidYMid meet">
<metadata>
Created by potrace 1.11, written by Peter Selinger 2001-2013
</metadata>
<g transform="translate(0.000000,512.000000) scale(0.100000,-0.100000)"
fill="#000000" stroke="none">
<path d="M122 2554 l0 -2444 2444 0 2443 1 0 2443 0 2444 -2443 0 -2444 0 0
-2444z m4828 1 l0 -2385 -2385 0 -2385 0 0 2385 0 2385 2385 0 2385 0 0 -2385z"/>
<path d="M2529 3916 c-2 -2 -29 -6 -59 -10 -396 -45 -747 -254 -972 -581 -92
-134 -192 -361 -213 -485 -3 -19 -10 -51 -15 -70 -23 -92 -32 -324 -19 -470
44 -486 319 -905 726 -1109 100 -50 254 -103 343 -117 19 -3 69 -12 110 -19
106 -18 410 -13 518 9 190 39 350 106 523 222 100 66 293 241 304 275 5 14 -4
28 -32 54 l-38 35 -40 -39 c-88 -84 -217 -178 -336 -244 -63 -34 -221 -93
-289 -106 -30 -6 -68 -13 -85 -16 -16 -4 -84 -8 -150 -11 -293 -11 -525 78
-725 276 -194 193 -293 404 -334 714 -16 116 -14 398 3 524 69 504 348 871
741 973 128 33 351 33 481 -1 251 -64 454 -244 579 -513 21 -45 49 -115 61
-154 l24 -73 48 0 c46 0 52 5 49 40 0 3 -3 79 -7 170 -3 91 -8 198 -10 239 -2
40 -6 158 -10 261 -4 104 -8 197 -9 207 -4 25 -96 33 -96 9 0 -26 -69 -94
-108 -107 -55 -18 -88 -14 -275 37 -244 65 -309 75 -508 80 -97 2 -178 2 -180
0z"/>
</g>
</svg>
